Supertramp Live In Paris '79 m2ts 1080p Dts Hd 96kHz


TRACKLIST 1) French Touch (intro) 2) School 3) Bloody Well Right 4) The Logical Song 5) Goodbye Stranger 6) Breakfast In America 7) Hide In Your Shell 8) Asylum 9) Even In The Quietest Moments 10) Give A Little Bit 11) Dreamer 12) Rudy 13) Take The Long Way Home 14) Another Man s Woman 15) Child Of Vision 16) Fool s Overture 17) Two Of Us 18) Crime Of The Century 19) From Now On (credits)


General 
ID : 0 (0x0) 
Supertramp Live In Paris '79 Dts Hd 96kHz.m2ts 
Format : BDAV 
Format/Info : Blu-ray Video 
File size : 11.3 GiB 
Duration : 1h 40mn 
Overall bit rate mode : Variable 
Overall bit rate : 16.1 Mbps 
Maximum Overall bit rate : 48.0 Mbps 

Video 
ID : 4113 (0x1011) 
Menu ID : 1 (0x1) 
Format : AVC 
Format/Info : Advanced Video Codec 
Format profile : High@L4.1 
Format settings, CABAC : Yes 
Format settings, ReFrames : 2 frames 
Codec ID : 27 
Duration : 1h 40mn 
Bit rate mode : Variable 
Bit rate : 14.0 Mbps 
Maximum bit rate : 30.0 Mbps 
Width : 1 920 pixels 
Height : 1 080 pixels 
Display aspect ratio : 16:9 
Frame rate : 24.000 fps 
Color space : YUV 
Chroma subsampling : 4:2:0 
Bit depth : 8 bits 
Scan type : Progressive 
Bits/(Pixel*Frame) : 0.281 
Stream size : 9.81 GiB (87%) 
Writing library : x264 core 
Color primaries : BT.709 
Transfer characteristics : BT.709 
Matrix coefficients : BT.709 

Audio 
ID : 4352 (0x1100) 
Menu ID : 1 (0x1) 
Format : DTS 
Format/Info : Digital Theater Systems 
Format profile : 96/24 / Core 
Mode : 16 
Format settings, Endianness : Big 
Muxing mode : Stream extension 
Codec ID : 134 
Duration : 1h 40mn 
Bit rate mode : Constant 
Bit rate : 1 509 Kbps 
Channel(s) : 6 channels 
Channel positions : Front: L C R, Side: L R, LFE 
Sampling rate : 96.0 KHz / 48.0 KHz 
Bit depth : 24 bits 
Compression mode : Lossy 
Stream size : 1.06 GiB (9%) 
